<?xml version="1.0" encoding="utf-8"?>
<!-- Generator: Adobe Illustrator 23.0.6, SVG Export Plug-In . SVG Version: 6.00 Build 0)  -->
<svg version="1.1" xmlns="http://www.w3.org/2000/svg" xmlns:xlink="http://www.w3.org/1999/xlink" x="0px" y="0px"
	 viewBox="0 0 18 18" style="enable-background:new 0 0 18 18;" xml:space="preserve">
<style type="text/css">
	.st0{fill:#C9D3DE;}
	.st1{fill:#44738D;}
	.st2{clip-path:url(#SVGID_2_);}
	.st3{fill:#D75C36;}
</style>
<g id="Layer_2">
	<path class="st0" d="M4.91,13.03L4.68,13c-0.23-0.02-0.45-0.09-0.65-0.2l-0.2-0.1l0.21-0.4l0.2,0.1c0.15,0.08,0.32,0.13,0.49,0.15
		l0.22,0.02L4.91,13.03z"/>
	<path class="st0" d="M16.03,13.02l-0.02-0.45l0.22-0.01c0.17-0.01,0.34-0.05,0.5-0.12l0.2-0.09l0.18,0.41l-0.2,0.09
		c-0.21,0.09-0.43,0.15-0.66,0.16L16.03,13.02z"/>
	<rect x="14.67" y="12.56" class="st0" width="1.05" height="0.45"/>
	<rect x="13.32" y="12.56" class="st0" width="1.05" height="0.45"/>
	<rect x="11.97" y="12.56" class="st0" width="1.05" height="0.45"/>
	<rect x="10.62" y="12.56" class="st0" width="1.05" height="0.45"/>
	<rect x="9.28" y="12.56" class="st0" width="1.05" height="0.45"/>
	<rect x="7.93" y="12.56" class="st0" width="1.05" height="0.45"/>
	<rect x="5.23" y="12.56" class="st0" width="1.05" height="0.45"/>
	<path class="st0" d="M17.44,12.51l-0.35-0.28l0.14-0.17c0.11-0.13,0.19-0.29,0.25-0.45l0.07-0.21l0.43,0.14l-0.07,0.21
		c-0.07,0.22-0.18,0.42-0.33,0.6L17.44,12.51z"/>
	<path class="st0" d="M3.53,12.44L3.4,12.25c-0.13-0.19-0.23-0.39-0.29-0.61l-0.06-0.22l0.43-0.11l0.06,0.22
		c0.04,0.17,0.12,0.32,0.22,0.46l0.13,0.18L3.53,12.44z"/>
	<rect x="17.55" y="10.11" class="st0" width="0.45" height="1.05"/>
	<rect x="3.05" y="10.02" class="st0" width="0.45" height="1.05"/>
	<rect x="17.55" y="8.76" class="st0" width="0.45" height="1.05"/>
	<rect x="17.55" y="7.42" class="st0" width="0.45" height="1.05"/>
	<rect x="3.05" y="7.32" class="st0" width="0.45" height="1.05"/>
	<rect x="17.55" y="6.07" class="st0" width="0.45" height="1.05"/>
	<rect x="3.05" y="5.97" class="st0" width="0.45" height="1.05"/>
	<rect x="17.55" y="4.72" class="st0" width="0.45" height="1.05"/>
	<rect x="3.05" y="4.63" class="st0" width="0.45" height="1.05"/>
	<rect x="17.55" y="3.37" class="st0" width="0.45" height="1.05"/>
	<rect x="3.05" y="3.28" class="st0" width="0.45" height="1.05"/>
	<path class="st0" d="M17.55,2.93V2.58c0-0.1-0.01-0.19-0.03-0.29l-0.05-0.22l0.44-0.09l0.05,0.22C17.99,2.33,18,2.46,18,2.58v0.04
		L17.55,2.93z"/>
	<path class="st0" d="M3.49,2.98H3.05V2.58c0-0.16,0.02-0.33,0.06-0.48l0.06-0.22L3.6,2L3.54,2.22C3.51,2.33,3.49,2.46,3.49,2.58
		C3.49,2.58,3.49,2.98,3.49,2.98z"/>
	<path class="st0" d="M17.39,1.89l-0.14-0.18c-0.11-0.14-0.24-0.25-0.39-0.34l-0.19-0.11l0.23-0.39L17.09,1
		c0.2,0.12,0.37,0.26,0.51,0.44l0.14,0.18L17.39,1.89z"/>
	<path class="st0" d="M3.7,1.82l-0.33-0.3l0.15-0.17c0.15-0.17,0.33-0.31,0.54-0.41l0.2-0.1l0.2,0.4l-0.2,0.1
		C4.1,1.42,3.96,1.53,3.85,1.66L3.7,1.82z"/>
	<path class="st0" d="M16.47,1.21L16.25,1.2c-0.03,0-0.06,0-0.09,0h-0.72V0.75h0.72c0.04,0,0.08,0,0.12,0l0.22,0.01L16.47,1.21z"/>
	<rect x="14.09" y="0.75" class="st0" width="1.05" height="0.45"/>
	<rect x="12.75" y="0.75" class="st0" width="1.05" height="0.45"/>
	<rect x="11.4" y="0.75" class="st0" width="1.05" height="0.45"/>
	<rect x="10.05" y="0.75" class="st0" width="1.05" height="0.45"/>
	<rect x="8.7" y="0.75" class="st0" width="1.05" height="0.45"/>
	<rect x="7.35" y="0.75" class="st0" width="1.05" height="0.45"/>
	<rect x="6.01" y="0.75" class="st0" width="1.05" height="0.45"/>
	<polygon class="st0" points="5.7,1.19 4.66,1.19 4.65,0.75 4.88,0.75 4.88,0.97 4.88,0.75 5.7,0.75 	"/>
	<rect x="3.05" y="8.68" class="st0" width="0.45" height="1.05"/>
	<rect x="6.58" y="12.56" class="st0" width="1.05" height="0.45"/>
</g>
<g id="Layer_1">
	<g>
		<g>
			<g>
				<circle class="st1" cx="7.93" cy="4.11" r="1.07"/>
				<circle class="st1" cx="13.13" cy="9.59" r="1.77"/>
			</g>
			<g>
				<g>
					<defs>
						<path id="SVGID_1_" d="M0,0.75h15.44h0.72c0.04,0,0.08,0,0.12,0l0.22,0.01l0.39,0.12L17.09,1c0.2,0.12,0.37,0.26,0.51,0.44
							l0.14,0.18l0.17,0.37l0.05,0.22C17.99,2.33,18,2.45,18,2.58v0.04v14.63H0V0.75z"/>
					</defs>
					<clipPath id="SVGID_2_">
						<use xlink:href="#SVGID_1_"  style="overflow:visible;"/>
					</clipPath>
					<g id="Check" class="st2">
						<path class="st3" d="M23.34-0.85c-0.47,0.17-0.94,0.36-1.41,0.54c-0.46,0.19-0.93,0.38-1.39,0.58
							c-0.46,0.2-0.92,0.4-1.37,0.61c-0.01,0.01-0.02,0.01-0.04,0.02c-0.01,0.01-0.02,0.01-0.04,0.02
							c-0.01,0.01-0.02,0.01-0.04,0.02s-0.02,0.01-0.04,0.02c-0.37,0.17-0.74,0.34-1.11,0.52C17.56,1.64,17.2,1.82,16.84,2
							c-0.36,0.18-0.71,0.37-1.06,0.56c-0.35,0.19-0.7,0.38-1.04,0.57c-0.12,0.07-0.24,0.14-0.37,0.21
							C14.24,3.41,14.12,3.48,14,3.55c-0.12,0.07-0.24,0.14-0.36,0.21s-0.24,0.14-0.36,0.21c-0.1,0.06-0.21,0.13-0.31,0.19
							c-0.1,0.06-0.2,0.13-0.3,0.19c-0.1,0.06-0.2,0.13-0.3,0.19c-0.1,0.06-0.2,0.13-0.3,0.19c-0.07,0.04-0.13,0.09-0.2,0.13
							c-0.07,0.04-0.13,0.09-0.2,0.13c-0.07,0.04-0.13,0.09-0.2,0.13c-0.07,0.04-0.13,0.09-0.19,0.13
							c-0.02,0.02-0.04,0.03-0.07,0.05c-0.02,0.02-0.04,0.03-0.07,0.05c-0.02,0.02-0.04,0.03-0.07,0.05
							c-0.02,0.02-0.04,0.03-0.07,0.05c-0.08,0.05-0.16,0.11-0.24,0.17c-0.08,0.05-0.16,0.11-0.24,0.17
							c-0.08,0.06-0.16,0.11-0.23,0.17c-0.08,0.06-0.15,0.11-0.23,0.17C9.57,6.5,9.07,6.88,8.58,7.28C8.1,7.67,7.64,8.07,7.18,8.48
							C6.74,8.89,6.3,9.31,5.88,9.75c-0.42,0.43-0.82,0.87-1.21,1.32c-0.04,0.04-0.07,0.08-0.11,0.12c-0.04,0.04-0.07,0.08-0.1,0.12
							c-0.03,0.04-0.07,0.08-0.1,0.12c-0.03,0.04-0.07,0.08-0.1,0.13c-0.03,0.03-0.05,0.06-0.08,0.1c-0.03,0.03-0.05,0.06-0.08,0.1
							c-0.03,0.03-0.05,0.06-0.08,0.1c-0.02,0.03-0.05,0.07-0.08,0.1c-0.01-0.02-0.03-0.03-0.04-0.05
							c-0.01-0.02-0.03-0.03-0.04-0.05c-0.01-0.02-0.03-0.03-0.04-0.05c-0.01-0.02-0.03-0.03-0.04-0.05
							c-0.13-0.16-0.25-0.3-0.37-0.43c-0.12-0.13-0.22-0.25-0.33-0.37c-0.1-0.12-0.2-0.22-0.3-0.33c-0.1-0.1-0.19-0.2-0.28-0.3
							c-0.02-0.02-0.05-0.05-0.07-0.08c-0.02-0.02-0.05-0.05-0.07-0.08c-0.02-0.02-0.05-0.05-0.07-0.08
							c-0.02-0.02-0.05-0.05-0.07-0.08c-0.1-0.11-0.2-0.22-0.3-0.34c-0.1-0.12-0.21-0.24-0.31-0.37C1.51,9.19,1.4,9.06,1.28,8.91
							C1.17,8.76,1.05,8.6,0.92,8.43C0.86,8.35,0.8,8.27,0.74,8.19C0.68,8.11,0.62,8.02,0.56,7.93C0.49,7.84,0.43,7.75,0.36,7.66
							C0.29,7.56,0.23,7.46,0.16,7.36c0.14,0.45,0.27,0.87,0.4,1.27C0.68,9.03,0.8,9.42,0.92,9.78c0.12,0.37,0.24,0.72,0.35,1.06
							c0.12,0.34,0.23,0.67,0.34,0.98c0.03,0.07,0.05,0.15,0.08,0.22c0.03,0.07,0.05,0.15,0.08,0.22c0.03,0.07,0.05,0.14,0.08,0.21
							c0.03,0.07,0.05,0.14,0.08,0.21c0.01,0.03,0.02,0.07,0.04,0.1c0.01,0.03,0.02,0.07,0.04,0.1c0.01,0.03,0.02,0.07,0.04,0.1
							c0.01,0.03,0.02,0.07,0.04,0.1c0.01,0.03,0.02,0.07,0.04,0.1c0.01,0.03,0.03,0.07,0.04,0.1c0.01,0.03,0.03,0.07,0.04,0.1
							s0.03,0.07,0.04,0.1c0.01,0.02,0.02,0.05,0.03,0.07c0.01,0.02,0.02,0.05,0.03,0.07c0.01,0.02,0.02,0.05,0.03,0.07
							c0.01,0.02,0.02,0.05,0.03,0.07c0,0.01,0.01,0.02,0.01,0.03c0,0.01,0.01,0.02,0.01,0.03c0,0.01,0.01,0.02,0.01,0.03
							c0,0.01,0.01,0.02,0.01,0.03c0.01,0.03,0.03,0.07,0.04,0.1c0.01,0.03,0.03,0.07,0.04,0.1c0.01,0.03,0.03,0.07,0.04,0.1
							c0.01,0.03,0.03,0.07,0.04,0.1l-0.01,0.03l0.02-0.01c0.08,0.2,0.16,0.4,0.24,0.61c0.09,0.21,0.17,0.43,0.26,0.65
							c0.09,0.23,0.19,0.46,0.29,0.7c0.1,0.24,0.21,0.5,0.31,0.76c0.18-0.33,0.37-0.66,0.56-0.99c0.19-0.32,0.38-0.65,0.58-0.96
							s0.4-0.63,0.6-0.94c0.21-0.31,0.41-0.61,0.62-0.91c0-0.01,0.01-0.01,0.01-0.02c0-0.01,0.01-0.01,0.01-0.02
							c0.01-0.01,0.01-0.01,0.01-0.02c0-0.01,0.01-0.01,0.01-0.02c0.04-0.06,0.08-0.12,0.12-0.17s0.08-0.11,0.12-0.17
							c0.04-0.06,0.08-0.11,0.12-0.17c0.04-0.06,0.08-0.11,0.12-0.17c0.04-0.05,0.07-0.1,0.11-0.15c0.04-0.05,0.07-0.1,0.11-0.14
							c0.04-0.05,0.07-0.1,0.11-0.14c0.04-0.05,0.07-0.1,0.11-0.14c0.01-0.01,0.01-0.02,0.02-0.03c0.01-0.01,0.01-0.02,0.02-0.03
							c0.01-0.01,0.01-0.02,0.02-0.03c0.01-0.01,0.01-0.02,0.02-0.02c0.04-0.06,0.09-0.11,0.13-0.17c0.04-0.06,0.09-0.11,0.13-0.17
							s0.09-0.11,0.13-0.17s0.09-0.11,0.13-0.17c0.05-0.06,0.09-0.11,0.14-0.17c0.05-0.06,0.09-0.11,0.14-0.17
							c0.05-0.06,0.09-0.11,0.14-0.17s0.09-0.11,0.14-0.17c0.33-0.39,0.66-0.77,1-1.14c0.34-0.38,0.68-0.74,1.03-1.1
							c0.35-0.36,0.71-0.72,1.07-1.06c0.36-0.35,0.73-0.69,1.11-1.02c0.07-0.06,0.14-0.13,0.22-0.19c0.07-0.06,0.14-0.13,0.22-0.19
							c0.07-0.06,0.15-0.13,0.22-0.19c0.07-0.06,0.15-0.13,0.22-0.19c0.02-0.02,0.04-0.04,0.07-0.06c0.02-0.02,0.04-0.04,0.07-0.06
							c0.02-0.02,0.04-0.04,0.07-0.06c0.02-0.02,0.04-0.04,0.07-0.05c0.06-0.05,0.12-0.1,0.17-0.14c0.06-0.05,0.12-0.1,0.17-0.14
							c0.06-0.05,0.12-0.09,0.18-0.14s0.12-0.09,0.18-0.14c0.09-0.07,0.18-0.14,0.27-0.21c0.09-0.07,0.18-0.14,0.27-0.21
							c0.09-0.07,0.18-0.14,0.27-0.21s0.18-0.14,0.28-0.21c0.1-0.08,0.21-0.16,0.32-0.23c0.11-0.08,0.21-0.15,0.32-0.23
							c0.11-0.08,0.21-0.15,0.32-0.23s0.21-0.15,0.32-0.22C16.8,2.71,17,2.57,17.2,2.44c0.2-0.13,0.41-0.27,0.61-0.4
							c0.21-0.13,0.41-0.26,0.62-0.39c0.21-0.13,0.42-0.25,0.63-0.37c0.46-0.27,0.93-0.53,1.39-0.77c0.47-0.25,0.94-0.48,1.41-0.7
							c0.48-0.22,0.96-0.43,1.43-0.63c0.48-0.2,0.97-0.38,1.45-0.55C24.29-1.2,23.82-1.03,23.34-0.85z"/>
					</g>
				</g>
			</g>
		</g>
	</g>
</g>
</svg>
